<svg xmlns="http://www.w3.org/2000/svg" viewBox="0 0 900 760" role="img" aria-label="Roleta MyBets em preto e dourado">
<defs>
<radialGradient id="bg" cx="50%" cy="45%"><stop offset="0" stop-color="#35270a"/><stop offset=".48" stop-color="#15120b"/><stop offset="1" stop-color="#080808"/></radialGradient>
<linearGradient id="gold" x1="0" y1="0" x2="1" y2="1"><stop stop-color="#fff1a0"/><stop offset=".25" stop-color="#f5c542"/><stop offset=".62" stop-color="#b47a0b"/><stop offset="1" stop-color="#ffd95a"/></linearGradient>
<linearGradient id="gold2" x1="0" y1="0" x2="0" y2="1"><stop stop-color="#ffd95a"/><stop offset="1" stop-color="#9a690d"/></linearGradient>
<filter id="glow"><feGaussianBlur stdDeviation="8" result="b"/><feMerge><feMergeNode in="b"/><feMergeNode in="SourceGraphic"/></feMerge></filter>
<filter id="shadow"><feDropShadow dx="0" dy="18" stdDeviation="18" flood-opacity=".8"/></filter>
<filter id="soft"><feGaussianBlur stdDeviation="18"/></filter>
</defs>
<rect width="900" height="760" rx="34" fill="url(#bg)"/>
<ellipse cx="450" cy="690" rx="310" ry="28" fill="#f5c542" opacity=".18" filter="url(#soft)"/>
<g opacity=".7" filter="url(#glow)"><circle cx="450" cy="380" r="302" fill="none" stroke="#f5c542" stroke-width="3" opacity=".18"/><circle cx="450" cy="380" r="286" fill="none" stroke="#f5c542" stroke-width="2" opacity=".45"/></g>
<g filter="url(#shadow)">
<circle cx="450" cy="380" r="270" fill="#050505" stroke="url(#gold)" stroke-width="12"/>
<circle cx="450" cy="380" r="250" fill="#101010" stroke="#c18b1b" stroke-width="4"/>
<g transform="translate(450 380)">
<path d="M0 0L0-245A245 245 0 0 1 94-226Z" fill="url(#gold2)" stroke="#080808" stroke-width="4"/><path d="M0 0L94-226A245 245 0 0 1 173-173Z" fill="#111" stroke="#080808" stroke-width="4"/>
<path d="M0 0L173-173A245 245 0 0 1 226-94Z" fill="url(#gold2)" stroke="#080808" stroke-width="4"/><path d="M0 0L226-94A245 245 0 0 1 245 0Z" fill="#111" stroke="#080808" stroke-width="4"/>
<path d="M0 0L245 0A245 245 0 0 1 226 94Z" fill="url(#gold2)" stroke="#080808" stroke-width="4"/><path d="M0 0L226 94A245 245 0 0 1 173 173Z" fill="#111" stroke="#080808" stroke-width="4"/>
<path d="M0 0L173 173A245 245 0 0 1 94 226Z" fill="url(#gold2)" stroke="#080808" stroke-width="4"/><path d="M0 0L94 226A245 245 0 0 1 0 245Z" fill="#111" stroke="#080808" stroke-width="4"/>
<path d="M0 0L0 245A245 245 0 0 1-94 226Z" fill="url(#gold2)" stroke="#080808" stroke-width="4"/><path d="M0 0L-94 226A245 245 0 0 1-173 173Z" fill="#111" stroke="#080808" stroke-width="4"/>
<path d="M0 0L-173 173A245 245 0 0 1-226 94Z" fill="url(#gold2)" stroke="#080808" stroke-width="4"/><path d="M0 0L-226 94A245 245 0 0 1-245 0Z" fill="#111" stroke="#080808" stroke-width="4"/>
<path d="M0 0L-245 0A245 245 0 0 1-226-94Z" fill="url(#gold2)" stroke="#080808" stroke-width="4"/><path d="M0 0L-226-94A245 245 0 0 1-173-173Z" fill="#111" stroke="#080808" stroke-width="4"/>
<path d="M0 0L-173-173A245 245 0 0 1-94-226Z" fill="url(#gold2)" stroke="#080808" stroke-width="4"/><path d="M0 0L-94-226A245 245 0 0 1 0-245Z" fill="#111" stroke="#080808" stroke-width="4"/>
</g>
<circle cx="450" cy="380" r="246" fill="none" stroke="#f7d15b" stroke-width="3" opacity=".8"/>
<g fill="#fff" font-family="Arial,sans-serif" font-size="30" font-weight="900" text-anchor="middle"><text x="450" y="174">2X</text><text x="544" y="193">5X</text><text x="623" y="255">3X</text><text x="655" y="389">10X</text><text x="625" y="519">2X</text><text x="544" y="580">5X</text><text x="450" y="606">3X</text><text x="356" y="580">2X</text><text x="275" y="519">5X</text><text x="245" y="389">10X</text><text x="277" y="255">2X</text><text x="356" y="193">3X</text></g>
<circle cx="450" cy="380" r="83" fill="#090909" stroke="url(#gold)" stroke-width="8"/>
<text x="450" y="375" fill="#fff" font-family="Arial,sans-serif" font-size="27" font-style="italic" font-weight="900" text-anchor="middle">My<tspan fill="#f5c542">Bets</tspan></text>
<path d="M410 394 Q450 412 490 394" fill="none" stroke="#f5c542" stroke-width="5" stroke-linecap="round"/>
</g>
<g filter="url(#glow)" fill="url(#gold)"><circle cx="450" cy="119" r="7"/><circle cx="590" cy="166" r="7"/><circle cx="682" cy="270" r="7"/><circle cx="712" cy="380" r="7"/><circle cx="682" cy="490" r="7"/><circle cx="590" cy="594" r="7"/><circle cx="450" cy="641" r="7"/><circle cx="310" cy="594" r="7"/><circle cx="218" cy="490" r="7"/><circle cx="188" cy="380" r="7"/><circle cx="218" cy="270" r="7"/><circle cx="310" cy="166" r="7"/></g>
<path d="M450 77 L423 129 L477 129 Z" fill="#fff2a2" stroke="#f5c542" stroke-width="5" filter="url(#glow)"/>
<g transform="translate(92 190) rotate(-15)"><circle cx="0" cy="0" r="48" fill="#0b0b0b" stroke="#d29b22" stroke-width="8"/><circle cx="0" cy="0" r="38" fill="none" stroke="#f5c542" stroke-width="3"/><path d="M-17 3 L-5 14 L20-16 L10-20 L-4-4 L-13-10Z" fill="#f5c542"/></g>
<g transform="translate(808 505) rotate(15)"><circle cx="0" cy="0" r="48" fill="#0b0b0b" stroke="#d29b22" stroke-width="8"/><circle cx="0" cy="0" r="38" fill="none" stroke="#f5c542" stroke-width="3"/><path d="M-17 3 L-5 14 L20-16 L10-20 L-4-4 L-13-10Z" fill="#f5c542"/></g>
</svg>